<svg xmlns="http://www.w3.org/2000/svg" version="1.1" xmlns:xlink="http://www.w3.org/1999/xlink" xmlns:svgjs="http://svgjs.dev/svgjs" width="1000" height="1000" viewBox="0 0 1000 1000"><rect width="1000" height="1000" fill="#ffffff"></rect><g transform="matrix(0.7,0,0,0.7,149.5757577534357,403.8298875610684)"><svg viewBox="0 0 396 109" data-background-color="#ffffff" preserveAspectRatio="xMidYMid meet" height="275" width="1000" xmlns="http://www.w3.org/2000/svg" xmlns:xlink="http://www.w3.org/1999/xlink"><g id="tight-bounds" transform="matrix(1,0,0,1,0.2400001005150898,-0.045235034579008015)"><svg viewBox="0 0 395.52 109.090470069158" height="109.090470069158" width="395.52"><g><svg viewBox="0 0 584.1646608502479 161.1215550413223" height="109.090470069158" width="395.52"><g transform="matrix(1,0,0,1,0,22.26788495867769)"><svg viewBox="0 0 395.52 116.58578512396691" height="116.58578512396691" width="395.52"><g id="textblocktransform"><svg viewBox="0 0 395.52 116.58578512396691" height="116.58578512396691" width="395.52" id="textblock"><g><svg viewBox="0 0 395.52 116.58578512396691" height="116.58578512396691" width="395.52"><g transform="matrix(1,0,0,1,0,0)"><svg width="395.52" viewBox="3.6500000953674316 -37.150001525878906 127.04000091552734 37.45000076293945" height="116.58578512396691" data-palette-color="#6936f5"><path d="M25.4 0L11.45 0Q9.1 0 7.33-0.73 5.55-1.45 4.6-3.18 3.65-4.9 3.65-7.8L3.65-7.8 3.65-36.85 8.7-36.85 8.7-8.55Q8.7-6.95 9.25-6.08 9.8-5.2 10.7-4.9 11.6-4.6 12.65-4.6L12.65-4.6 25.4-4.6 25.4 0ZM35.35 0L30.3 0 30.3-36.85 35.35-36.85 35.35 0ZM48.25 0L43.2 0 43.2-36.85 47.3-36.85 65.34-8.6 65.34-36.85 70.34-36.85 70.34 0 66.3 0 48.25-28.25 48.25 0ZM82.14 0L77.09 0 77.09-36.85 82.14-36.85 82.14-20.6 88.09-20.6 97.44-36.85 102.79-36.85 92.09-18.4 102.99 0 97.59 0 88.09-16.1 82.14-16.1 82.14 0ZM118.64 0.3L118.64 0.3Q117.44 0.3 115.92 0.23 114.39 0.15 112.82 0 111.24-0.15 109.82-0.3 108.39-0.45 107.39-0.7L107.39-0.7 107.39-4.6Q108.69-4.5 110.52-4.4 112.34-4.3 114.42-4.25 116.49-4.2 118.44-4.2L118.44-4.2Q120.59-4.2 122.27-4.6 123.94-5 124.92-6.1 125.89-7.2 125.89-9.2L125.89-9.2 125.89-11.35Q125.89-13.6 124.67-14.8 123.44-16 120.94-16L120.94-16 117.19-16Q112.39-16 109.77-18.1 107.14-20.2 107.14-25.3L107.14-25.3 107.14-27.3Q107.14-32.6 110.02-34.88 112.89-37.15 118.19-37.15L118.19-37.15Q119.94-37.15 121.94-36.98 123.94-36.8 125.84-36.55 127.74-36.3 128.99-36.05L128.99-36.05 128.99-32.15Q126.74-32.3 123.97-32.48 121.19-32.65 118.74-32.65L118.74-32.65Q116.64-32.65 115.12-32.18 113.59-31.7 112.77-30.5 111.94-29.3 111.94-27.1L111.94-27.1 111.94-25.6Q111.94-22.9 113.39-21.85 114.84-20.8 117.44-20.8L117.44-20.8 121.49-20.8Q124.64-20.8 126.67-19.65 128.69-18.5 129.69-16.5 130.69-14.5 130.69-11.95L130.69-11.95 130.69-9.35Q130.69-5.45 129.09-3.35 127.49-1.25 124.79-0.48 122.09 0.3 118.64 0.3Z" opacity="1" transform="matrix(1,0,0,1,0,0)" fill="#000000" class="wordmark-text-0" data-fill-palette-color="primary" id="text-0"></path></svg></g></svg></g></svg></g></svg></g><g transform="matrix(1,0,0,1,423.0431058089256,0)"><svg viewBox="0 0 161.1215550413223 161.1215550413223" height="161.1215550413223" width="161.1215550413223"><g data-palette-color="#bb84e8"><rect width="44.039891711294764" height="161.1215550413223" fill="#000000" stroke="transparent" data-fill-palette-color="accent" x="0" fill-opacity="1"></rect><rect width="44.039891711294764" height="161.1215550413223" fill="#000000" stroke="transparent" data-fill-palette-color="accent" x="53.7071850137741" fill-opacity="0.75"></rect><rect width="44.039891711294764" height="161.1215550413223" fill="#000000" stroke="transparent" data-fill-palette-color="accent" x="107.4143700275482" fill-opacity="0.5"></rect></g></svg></g></svg></g><defs></defs></svg><rect width="395.52" height="109.090470069158" fill="none" stroke="none" visibility="hidden"></rect></g></svg></g></svg>